<svg id="Laag_1" data-name="Laag 1" xmlns="http://www.w3.org/2000/svg" viewBox="0 0 277.06 404.92"><defs><style>.cls-1,.cls-5{fill:#5ea0c3;}.cls-2{fill:none;}.cls-2,.cls-4{stroke:#474a57;stroke-linecap:round;stroke-linejoin:round;stroke-width:3px;}.cls-3{fill:#474a57;}.cls-4{fill:#fff;}.cls-5{font-size:35px;font-family:Pacifico-Regular, Pacifico;}.cls-6{letter-spacing:-0.01em;}.cls-7{letter-spacing:-0.02em;}</style></defs><title>logo</title><path class="cls-1" d="M60.31,41.37a30.62,30.62,0,0,1-1.7,16.11A45.86,45.86,0,0,1,47.89,73.71L60,93.24q7,11.27-.81,18.22A18.16,18.16,0,0,1,49.05,116q-5.88.72-12.72-2.51T22.7,102.7Q9.93,88.53,5.63,74.54t-1-25.83A41.53,41.53,0,0,1,17.34,28.54a33,33,0,0,1,13.28-7.68,22.16,22.16,0,0,1,12.59.05,23.09,23.09,0,0,1,10.38,6.81A27.16,27.16,0,0,1,60.31,41.37Zm-16.63-3.7a13.42,13.42,0,0,0-9.82-4.78q-5.67-.18-12.06,5.52a25.17,25.17,0,0,0-8.53,15.78q-1.29,9.33,3.07,20A72.65,72.65,0,0,0,30,95.19a40.94,40.94,0,0,0,7.8,6.9,20.73,20.73,0,0,0,6.93,3.21c2,.42,3.46.25,4.31-.5,1.17-1,.61-3.45-1.67-7.2L37.8,82.33c-2.08,1.35-3,1.94-2.71,1.78-1.62,1-2.92,1.4-3.91,1.15a5.75,5.75,0,0,1-2.8-1.85,4.52,4.52,0,0,1-1.32-3.22,4.25,4.25,0,0,1,1.61-3.07,7.39,7.39,0,0,1,1.11-.87c1.29-.82,2.27-1.47,2.92-2Q28.7,68,22.15,57.37A6.5,6.5,0,0,1,21,52.26a8.23,8.23,0,0,1,2.63-4.18A6.84,6.84,0,0,1,27.79,46a4.66,4.66,0,0,1,3.5,1.85,13.53,13.53,0,0,1,1.5,1.94l9.89,15.62Q55.44,50.74,43.68,37.67Z" transform="translate(-3.2 -2.91)"/><path class="cls-1" d="M70.46,97a15.2,15.2,0,0,1-5.95-6.92A73.66,73.66,0,0,1,60.3,79.12,72.7,72.7,0,0,1,58,67.74a7.11,7.11,0,0,1,.6-4.32,8.32,8.32,0,0,1,3.91-3.07,4.23,4.23,0,0,1,2.6-.57,2.2,2.2,0,0,1,1.41,1.31,36.68,36.68,0,0,1,1.11,4.55q.57,3.21,1.2,5.73A79.07,79.07,0,0,0,72.4,82.86,5.27,5.27,0,0,0,73.85,85a1.46,1.46,0,0,0,1.54.07q1.15-.54,1.8-3.66a38.44,38.44,0,0,0,.39-8.74A104,104,0,0,0,76,59.29a6.65,6.65,0,0,1,.32-4.19,6.7,6.7,0,0,1,3.33-2.8,5.61,5.61,0,0,1,2.67-.73,1.86,1.86,0,0,1,1.43,1.25q.9,1.92,3,11.44,2.49,10.84,3.58,13.16a4.13,4.13,0,0,0,1.68,2,2.15,2.15,0,0,0,2,0q1.53-.72,2.76-3.6a68.11,68.11,0,0,0,2.77-8.78,3,3,0,0,1,1.57-2,1.94,1.94,0,0,1,2,.18,5.18,5.18,0,0,1,1.77,2.26,7.82,7.82,0,0,1,.79,5.46,37.44,37.44,0,0,1-4,10,16.44,16.44,0,0,1-7.42,6.69,6.51,6.51,0,0,1-6.76-.29q-3.06-2-5.5-7.18a19.93,19.93,0,0,1-.13,9.88,8.46,8.46,0,0,1-4.29,5.46A7.31,7.31,0,0,1,70.46,97Z" transform="translate(-3.2 -2.91)"/><path class="cls-1" d="M131.46,60.86a5.3,5.3,0,0,1,1.29,2.58,7.86,7.86,0,0,1-.31,5.5,36.75,36.75,0,0,1-6,9.07,16.94,16.94,0,0,1-8.77,5.13q-7.26,1.78-12.39-4T97.62,63a121.19,121.19,0,0,1-3-23.59,80.28,80.28,0,0,1,2.25-24q2.82-10.5,9.83-12.22a7.2,7.2,0,0,1,7.13,2.15c2.12,2.08,3.73,5.4,4.86,10q2.4,9.83.13,24.12a129.75,129.75,0,0,1-8.47,29.3A9.78,9.78,0,0,0,113.4,73a4.59,4.59,0,0,0,3.82.59,9.83,9.83,0,0,0,5.47-3.39A46.64,46.64,0,0,0,127.58,62a3,3,0,0,1,2-1.7A1.94,1.94,0,0,1,131.46,60.86ZM104.25,19.67a115.23,115.23,0,0,0,0,18,127.3,127.3,0,0,0,2.79,20A108.91,108.91,0,0,0,111.58,36a54.52,54.52,0,0,0-.87-18.56c-1-4.18-2.31-6.09-3.85-5.71Q105,12.23,104.25,19.67Z" transform="translate(-3.2 -2.91)"/><path class="cls-1" d="M127.15,76q-1.2-3.43-1-10.91A69.17,69.17,0,0,1,130,44.17a6.37,6.37,0,0,1,2.62-3.53,8.83,8.83,0,0,1,4.93-1,4.78,4.78,0,0,1,2.36.5,1.78,1.78,0,0,1,.63,1.64,32.09,32.09,0,0,1-1.48,6.07c-.64,2.25-1.15,4.2-1.55,5.86a60.59,60.59,0,0,0-1.05,6.22,46,46,0,0,1,5.84-11,25.87,25.87,0,0,1,6.77-6.62,11.52,11.52,0,0,1,6.4-2.05c2,.07,3.37.57,4.16,1.5a6,6,0,0,1,1.1,4.2,54,54,0,0,1-1.94,9.8q-.78,3-1.08,4.56,4.59-10.3,9.92-14.9T177.49,41q5.53.18,5.35,5.7a69.62,69.62,0,0,1-2.26,11.92,59.75,59.75,0,0,0-1.94,9.72c-.07,2.26.71,3.42,2.36,3.48q1.69,0,4.1-2a69.23,69.23,0,0,0,6.47-6.55,3,3,0,0,1,2.33-1.12,2,2,0,0,1,1.71,1.08,5.26,5.26,0,0,1,.54,2.82,7.83,7.83,0,0,1-1.78,5.22,37.85,37.85,0,0,1-8.1,7.13A16.51,16.51,0,0,1,176.62,81c-2.89-.1-5.05-1-6.47-2.72s-2.07-4.16-2-7.34a52.54,52.54,0,0,1,1.47-8.45A43.74,43.74,0,0,0,171,55.11c0-.9-.26-1.37-.89-1.39s-1.81.89-3.23,2.75a41.64,41.64,0,0,0-4.32,7.38,59.91,59.91,0,0,0-3.64,9.75q-1.07,4.05-2.34,5.36a5.11,5.11,0,0,1-4,1.23,4.5,4.5,0,0,1-4.12-2.81,14,14,0,0,1-1.19-6.54,73.52,73.52,0,0,1,1.16-9.32q.86-5.42.91-7.12c0-.9-.27-1.36-.89-1.38q-1.27,0-3.33,2.95a43.61,43.61,0,0,0-4,7.69,76.3,76.3,0,0,0-3.24,9.25c-.71,2.64-1.49,4.42-2.34,5.32a4.88,4.88,0,0,1-3.91,1.28Q128.37,79.41,127.15,76Z" transform="translate(-3.2 -2.91)"/><path class="cls-1" d="M187.86,81.33q-1.31-4.45.49-10.66A63.33,63.33,0,0,1,192,61.52a89.6,89.6,0,0,1,5.53-10,7.15,7.15,0,0,1,3-3,6.51,6.51,0,0,1,4.2.16q4.17,1.21,3.36,4a66.78,66.78,0,0,1-4.31,9q-4.57,8.41-5.5,11.59a9.09,9.09,0,0,0-.44,4,2.36,2.36,0,0,0,1.83,1.94c1,.29,2.4,0,4.26-1a75,75,0,0,0,7.76-4.74,3,3,0,0,1,2.53-.5,2,2,0,0,1,1.39,1.47,5.27,5.27,0,0,1-.17,2.87,7.82,7.82,0,0,1-3,4.61q-10.95,7.53-18,5.48Q189.17,85.79,187.86,81.33Zm15.35-40.72a6,6,0,0,1-.41-5,6.24,6.24,0,0,1,3.63-4.12,8.67,8.67,0,0,1,6.15-.29,8,8,0,0,1,4.47,2.89,5.18,5.18,0,0,1,.66,4.71,6.9,6.9,0,0,1-3.63,4.57,8.46,8.46,0,0,1-6.19.27A7.65,7.65,0,0,1,203.21,40.61Z" transform="translate(-3.2 -2.91)"/><path class="cls-1" d="M204.77,86.61q.36-3.63,3.76-10.29A69.08,69.08,0,0,1,220.86,59,6.38,6.38,0,0,1,224.73,57a8.82,8.82,0,0,1,4.88,1.19,4.74,4.74,0,0,1,1.92,1.46,1.74,1.74,0,0,1-.12,1.75,32.56,32.56,0,0,1-3.91,4.87c-1.54,1.77-2.84,3.33-3.92,4.69A63.37,63.37,0,0,0,220,76.13a48.42,48.42,0,0,1,11-7.75A24.81,24.81,0,0,1,240,65.65a12.37,12.37,0,0,1,6.38,1q4.94,2.51,2.42,7.43-1.5,3-7.1,9.84a57.63,57.63,0,0,0-5.87,8c-1,2-.82,3.41.65,4.15q1.51.78,4.54,0a67.57,67.57,0,0,0,8.64-3.19,3,3,0,0,1,2.58,0,2,2,0,0,1,1.09,1.7,5.26,5.26,0,0,1-.7,2.79,7.82,7.82,0,0,1-3.83,4,38,38,0,0,1-10.36,3,16.54,16.54,0,0,1-9.84-1.77c-2.57-1.31-4.14-3-4.69-5.2s-.12-4.65,1.32-7.48a52.92,52.92,0,0,1,4.92-7,45.13,45.13,0,0,0,4.34-6.09c.41-.81.34-1.36-.22-1.64s-2,0-4.05,1.13a46.17,46.17,0,0,0-7,4.85,59.47,59.47,0,0,0-7.47,7.27q-2.64,3.14-4.38,3.83a4.88,4.88,0,0,1-4.08-.51Q204.4,90.25,204.77,86.61Z" transform="translate(-3.2 -2.91)"/><path class="cls-1" d="M241.82,109a15.62,15.62,0,0,1,.28-8.46,21.71,21.71,0,0,1,4.37-7.79,26.44,26.44,0,0,1,9.37-7.14A19.69,19.69,0,0,1,266,83.88a16.23,16.23,0,0,1,8.94,4,14.51,14.51,0,0,1,4.85,7.51,15.4,15.4,0,0,1-.25,8.48,21.46,21.46,0,0,1-4.37,7.8,25.78,25.78,0,0,1-9.39,7.1,19.8,19.8,0,0,1-10.22,1.63,16.27,16.27,0,0,1-8.9-3.93A14.41,14.41,0,0,1,241.82,109Zm17.29,2q3.57-1.08,7.51-5.65c2-2.35,3.14-4.51,3.32-6.45a4.94,4.94,0,0,0-1.53-4.47,5.87,5.87,0,0,0-5.85-1q-3.54,1-7.54,5.67-3.17,3.68-3.38,6.52a5.09,5.09,0,0,0,1.71,4.51Q255.54,112,259.11,110.91Z" transform="translate(-3.2 -2.91)"/><path class="cls-2" d="M229.42,139.21H70.8a61.82,61.82,0,0,0-9.28,32.61v105a19.15,19.15,0,0,0,19.09,19.1h138a19.15,19.15,0,0,0,19.09-19.1V169.53A59.6,59.6,0,0,0,229.42,139.21Z" transform="translate(-3.2 -2.91)"/><rect class="cls-2" x="195.17" y="300.8" width="24" height="31.39" rx="10.29" ry="10.29"/><rect class="cls-2" x="74.23" y="300.8" width="24" height="31.39" rx="10.29" ry="10.29"/><rect class="cls-2" x="67.66" y="149.12" width="75.63" height="48.84" rx="12" ry="12"/><rect class="cls-2" x="150.95" y="149.12" width="75.63" height="48.84" rx="12" ry="12"/><rect class="cls-2" x="37.08" y="181.08" width="15.18" height="24.79" rx="7.59" ry="7.59"/><line class="cls-2" x1="52.25" y1="194" x2="58.31" y2="194"/><rect class="cls-2" x="243.76" y="184.52" width="15.18" height="24.79" rx="7.59" ry="7.59" transform="translate(499.5 390.92) rotate(-180)"/><line class="cls-2" x1="240.56" y1="194.53" x2="234.5" y2="194.53"/><line class="cls-2" x1="74.15" y1="184.22" x2="81.53" y2="191.26"/><line class="cls-2" x1="92.22" y1="166.5" x2="99.61" y2="173.53"/><line class="cls-2" x1="75.65" y1="176.84" x2="89.02" y2="189.58"/><line class="cls-2" x1="84.77" y1="167.91" x2="98.14" y2="180.65"/><line class="cls-2" x1="75.3" y1="167.37" x2="98.14" y2="189.13"/><line class="cls-2" x1="194.46" y1="171.84" x2="201.84" y2="178.88"/><line class="cls-2" x1="212.53" y1="154.12" x2="219.92" y2="161.15"/><line class="cls-2" x1="195.96" y1="164.46" x2="209.33" y2="177.2"/><line class="cls-2" x1="205.08" y1="155.53" x2="218.45" y2="168.27"/><line class="cls-2" x1="195.61" y1="154.99" x2="218.45" y2="176.75"/><path class="cls-2" d="M61.52,208.78s49,4.87,81.85,79.9" transform="translate(-3.2 -2.91)"/><path class="cls-2" d="M237.19,208.78s-47.24,4.87-80,79.9" transform="translate(-3.2 -2.91)"/><path class="cls-2" d="M177.64,109.46H123.88A62.46,62.46,0,0,0,70.8,139.21H229.42A60.17,60.17,0,0,0,177.64,109.46Z" transform="translate(-3.2 -2.91)"/><path class="cls-3" d="M160.67,227.41a9.87,9.87,0,0,1-3.84,3.48,14.73,14.73,0,0,1-6,1.59l-1.29,7.22q-.75,4.17-4.08,4.17a5.78,5.78,0,0,1-3.38-1.08,7.34,7.34,0,0,1-2.47-3.3,14.15,14.15,0,0,1-.93-5.46,24.66,24.66,0,0,1,2-10.33,14.54,14.54,0,0,1,5.28-6.35,13.32,13.32,0,0,1,7.3-2.12,10.57,10.57,0,0,1,4.79,1,7,7,0,0,1,3,2.69,7.33,7.33,0,0,1,1,3.82A8.71,8.71,0,0,1,160.67,227.41ZM157.52,223a4.24,4.24,0,0,0-1.3-3.22,5.67,5.67,0,0,0-4-1.25,8.07,8.07,0,0,0-5.39,1.95,12.42,12.42,0,0,0-3.54,5.41,23.31,23.31,0,0,0-1.24,7.9,13.15,13.15,0,0,0,.37,3.3,6.63,6.63,0,0,0,1,2.24c.39.53.77.79,1.13.79s.88-.69,1.14-2.07l1-5.66-1-.15a1.69,1.69,0,0,1-1.17-.56,1.81,1.81,0,0,1-.27-1,1.45,1.45,0,0,1,.37-1.05,1.38,1.38,0,0,1,1-.39,2.49,2.49,0,0,1,.45,0q.72.12,1.11.15.39-2.34,1.11-6.27a2.08,2.08,0,0,1,.82-1.45,2.66,2.66,0,0,1,1.52-.44,2.15,2.15,0,0,1,1.42.38,1.47,1.47,0,0,1,.43,1.18,4.11,4.11,0,0,1-.06.78l-1,5.82Q157.51,228.61,157.52,223Z" transform="translate(-3.2 -2.91)"/><circle class="cls-2" cx="71.23" cy="252.89" r="5.66"/><circle class="cls-2" cx="218.45" cy="252.89" r="5.66"/><path class="cls-2" d="M192.28,288.41c0-10.55,7.41-19.1,16.55-19.1s16.55,8.55,16.55,19.1" transform="translate(-3.2 -2.91)"/><path class="cls-2" d="M73.38,288.41c0-10.55,7.41-19.1,16.54-19.1s16.55,8.55,16.55,19.1" transform="translate(-3.2 -2.91)"/><circle class="cls-2" cx="147.14" cy="226.64" r="19.89"/><line class="cls-2" x1="79.9" y1="331.07" x2="79.9" y2="322.8"/><line class="cls-2" x1="86.24" y1="332.19" x2="86.24" y2="325.86"/><line class="cls-2" x1="92.58" y1="331.07" x2="92.58" y2="322.8"/><line class="cls-2" x1="200.83" y1="331.07" x2="200.83" y2="322.8"/><line class="cls-2" x1="207.17" y1="332.19" x2="207.17" y2="325.86"/><line class="cls-2" x1="213.51" y1="331.07" x2="213.51" y2="322.8"/><path class="cls-2" d="M73.38,298.23c0-10.55,7.41-19.1,16.54-19.1s16.55,8.55,16.55,19.1" transform="translate(-3.2 -2.91)"/><path class="cls-2" d="M192.28,298.23c0-10.55,7.41-19.1,16.55-19.1s16.55,8.55,16.55,19.1" transform="translate(-3.2 -2.91)"/><rect class="cls-4" x="52.06" y="285.77" width="187.64" height="23.04" rx="11.52" ry="11.52"/><rect class="cls-4" x="114.04" y="300.8" width="66.08" height="15.69" rx="3.91" ry="3.91"/><path class="cls-3" d="M140.16,316.6a1.86,1.86,0,0,1-.3-1.08,9.21,9.21,0,0,1,.1-1.44,9.32,9.32,0,0,1,.35-1.38.84.84,0,0,1,.29-.45,1,1,0,0,1,.59-.14.49.49,0,0,1,.32.08.25.25,0,0,1,.09.22,5.65,5.65,0,0,1-.11.56c-.07.26-.13.49-.17.7a9.86,9.86,0,0,0-.21,1.46.73.73,0,0,0,0,.31.19.19,0,0,0,.17.09c.11,0,.24-.11.39-.31a4.26,4.26,0,0,0,.5-1,13.1,13.1,0,0,0,.52-1.57.82.82,0,0,1,.26-.45.8.8,0,0,1,.51-.14.68.68,0,0,1,.34.06.23.23,0,0,1,.09.21,9.11,9.11,0,0,1-.26,1.44,12.16,12.16,0,0,0-.29,1.65.51.51,0,0,0,.08.3.25.25,0,0,0,.22.11.81.81,0,0,0,.5-.25,8.77,8.77,0,0,0,.77-.83.35.35,0,0,1,.28-.15.23.23,0,0,1,.21.13.66.66,0,0,1,.08.34,1,1,0,0,1-.2.65,4.8,4.8,0,0,1-1,.91,2,2,0,0,1-1.18.35.8.8,0,0,1-.74-.38,2.18,2.18,0,0,1-.23-1.09,2.53,2.53,0,0,1-.53,1.09,1,1,0,0,1-.77.38A.87.87,0,0,1,140.16,316.6Z" transform="translate(-3.2 -2.91)"/><path class="cls-3" d="M148.27,316.62a4,4,0,0,1-.16-1.34,8.39,8.39,0,0,1,.39-2.58.78.78,0,0,1,.31-.45,1.11,1.11,0,0,1,.6-.14.52.52,0,0,1,.29.06.21.21,0,0,1,.08.19,4,4,0,0,1-.15.76c-.07.27-.13.52-.17.72s-.08.46-.11.77a5.92,5.92,0,0,1,.68-1.38,3.09,3.09,0,0,1,.8-.84,1.49,1.49,0,0,1,.78-.28.69.69,0,0,1,.52.17.74.74,0,0,1,.15.51,6.7,6.7,0,0,1-.2,1.21c-.05.25-.09.44-.11.57a5,5,0,0,1,1.16-1.87,1.83,1.83,0,0,1,1.19-.59.6.6,0,0,1,.68.68,9,9,0,0,1-.23,1.48,6.38,6.38,0,0,0-.2,1.2c0,.28.1.41.3.41a.81.81,0,0,0,.5-.25,10.35,10.35,0,0,0,.77-.83.35.35,0,0,1,.28-.15.23.23,0,0,1,.21.13.66.66,0,0,1,.08.34,1,1,0,0,1-.2.65,4.59,4.59,0,0,1-1,.91,2,2,0,0,1-1.17.35,1,1,0,0,1-.81-.3,1.34,1.34,0,0,1-.27-.9,6.38,6.38,0,0,1,.15-1,5.6,5.6,0,0,0,.14-.91c0-.11,0-.17-.12-.17s-.22.12-.39.35a5.5,5.5,0,0,0-.5.93,8.59,8.59,0,0,0-.41,1.21,1.56,1.56,0,0,1-.26.67.63.63,0,0,1-.49.16.54.54,0,0,1-.51-.33,1.59,1.59,0,0,1-.18-.79,9.1,9.1,0,0,1,.11-1.15c0-.45.08-.74.08-.88s0-.17-.11-.17-.24.13-.4.38a5.37,5.37,0,0,0-.47,1,8.93,8.93,0,0,0-.36,1.15,1.5,1.5,0,0,1-.26.66.59.59,0,0,1-.48.17A.58.58,0,0,1,148.27,316.62Z" transform="translate(-3.2 -2.91)"/><path class="cls-3" d="M142.29,310.48a3.62,3.62,0,0,1-1.34,1.38,4.68,4.68,0,0,1-2.09.64l-.45,2.87c-.17,1.11-.64,1.66-1.42,1.66a1.82,1.82,0,0,1-1.17-.43,2.81,2.81,0,0,1-.86-1.31,6.23,6.23,0,0,1-.33-2.17,10.92,10.92,0,0,1,.69-4.12,5.62,5.62,0,0,1,1.83-2.53,4.24,4.24,0,0,1,2.55-.84,3.19,3.19,0,0,1,1.66.4,2.53,2.53,0,0,1,1,1.06,3.32,3.32,0,0,1,.35,1.53A3.83,3.83,0,0,1,142.29,310.48Zm-1.1-1.76a1.64,1.64,0,0,0-1.86-1.77,2.58,2.58,0,0,0-1.87.77,5,5,0,0,0-1.24,2.16,10.74,10.74,0,0,0-.43,3.14,5.84,5.84,0,0,0,.13,1.32,2.9,2.9,0,0,0,.34.89c.13.21.26.31.39.31s.3-.27.39-.82l.35-2.26-.36-.06a.55.55,0,0,1-.4-.22.73.73,0,0,1-.1-.41.66.66,0,0,1,.13-.42.46.46,0,0,1,.36-.15h.16l.39.06c.09-.62.22-1.46.38-2.5a.92.92,0,0,1,.29-.58.88.88,0,0,1,.53-.17.67.67,0,0,1,.49.15.61.61,0,0,1,.16.47,2.41,2.41,0,0,1,0,.31l-.35,2.32A2.29,2.29,0,0,0,141.19,308.72Z" transform="translate(-3.2 -2.91)"/><path class="cls-3" d="M148.86,314.78a.66.66,0,0,1,.08.34,1,1,0,0,1-.2.65,4.63,4.63,0,0,1-1,.91,2.06,2.06,0,0,1-1.2.35,1.44,1.44,0,0,1-1.36-.83,4.68,4.68,0,0,1-.44-2.16,14.89,14.89,0,0,1,.33-2.91,9.78,9.78,0,0,1,1-2.8q.65-1.17,1.53-1.17a.9.9,0,0,1,.79.47,2.56,2.56,0,0,1,.28,1.33,7.54,7.54,0,0,1-.68,2.88,16.35,16.35,0,0,1-1.87,3.25,1.05,1.05,0,0,0,.24.61.55.55,0,0,0,.43.18,1.25,1.25,0,0,0,.76-.24,5.48,5.48,0,0,0,.82-.84.38.38,0,0,1,.28-.15A.24.24,0,0,1,148.86,314.78Zm-2-5.72a14.25,14.25,0,0,0-.54,2.15,16.81,16.81,0,0,0-.25,2.47,12.77,12.77,0,0,0,1.18-2.45,6.56,6.56,0,0,0,.44-2.24c0-.53-.1-.79-.29-.79S147,308.48,146.82,309.06Z" transform="translate(-3.2 -2.91)"/><path class="cls-3" d="M156.16,316.55a2.36,2.36,0,0,1-.31-1.27,7.87,7.87,0,0,1,.12-1.21,12.07,12.07,0,0,1,.31-1.37.9.9,0,0,1,.25-.46.77.77,0,0,1,.5-.13q.54,0,.54.36a8.63,8.63,0,0,1-.2,1.21,8.82,8.82,0,0,0-.25,1.56,1,1,0,0,0,.08.48.29.29,0,0,0,.28.16.75.75,0,0,0,.47-.26,10,10,0,0,0,.76-.82.35.35,0,0,1,.28-.15.23.23,0,0,1,.21.13.66.66,0,0,1,.08.34,1,1,0,0,1-.2.65,2.76,2.76,0,0,1-1.93,1.26A1.1,1.1,0,0,1,156.16,316.55Zm.41-5.33a.81.81,0,0,1,.07-1.18,1.09,1.09,0,0,1,.72-.25,1,1,0,0,1,.62.19.64.64,0,0,1,.24.53.87.87,0,0,1-.27.67,1,1,0,0,1-.72.24A.93.93,0,0,1,156.57,311.22Z" transform="translate(-3.2 -2.91)"/><path class="cls-3" d="M158.62,316.62a3.94,3.94,0,0,1-.17-1.34,8.39,8.39,0,0,1,.39-2.58.83.83,0,0,1,.31-.45,1.11,1.11,0,0,1,.6-.14.5.5,0,0,1,.29.06.2.2,0,0,1,.09.19,4.41,4.41,0,0,1-.16.76c-.07.27-.13.52-.17.73s-.07.46-.1.77a5.66,5.66,0,0,1,.77-1.46,3.13,3.13,0,0,1,.84-.81,1.55,1.55,0,0,1,.76-.24.6.6,0,0,1,.68.68,9,9,0,0,1-.23,1.48,7.39,7.39,0,0,0-.2,1.2c0,.28.1.41.3.41a.81.81,0,0,0,.5-.25,8.77,8.77,0,0,0,.77-.83.35.35,0,0,1,.28-.15.23.23,0,0,1,.21.13.57.57,0,0,1,.08.34.92.92,0,0,1-.2.65,4.8,4.8,0,0,1-1,.91,2,2,0,0,1-1.18.35,1,1,0,0,1-.8-.3,1.34,1.34,0,0,1-.27-.9,6,6,0,0,1,.14-1,5.6,5.6,0,0,0,.14-.91c0-.11,0-.17-.12-.17s-.22.12-.38.35a5.5,5.5,0,0,0-.5.93,6.62,6.62,0,0,0-.41,1.21,1.61,1.61,0,0,1-.27.66.58.58,0,0,1-.47.17A.56.56,0,0,1,158.62,316.62Z" transform="translate(-3.2 -2.91)"/><path class="cls-3" d="M164.33,316.73a1.91,1.91,0,0,1-.65-.81,2.64,2.64,0,0,1-.22-1.08,3.25,3.25,0,0,1,.3-1.42,2.34,2.34,0,0,1,.81-1,2,2,0,0,1,1.15-.35,1.81,1.81,0,0,1,1.05.31,2,2,0,0,1,.66.81,2.58,2.58,0,0,1,.22,1.08,3.18,3.18,0,0,1-.3,1.41,2.46,2.46,0,0,1-.82,1,2,2,0,0,1-1.15.35A1.8,1.8,0,0,1,164.33,316.73Zm1.77-1.21a2.16,2.16,0,0,0,.24-1.13,1.51,1.51,0,0,0-.21-.87.61.61,0,0,0-.5-.29.72.72,0,0,0-.62.38,2.17,2.17,0,0,0-.25,1.14,1.45,1.45,0,0,0,.21.87.64.64,0,0,0,.53.29A.72.72,0,0,0,166.1,315.52Z" transform="translate(-3.2 -2.91)"/><text class="cls-5" transform="translate(52.63 378.78)">L<tspan class="cls-6" x="23.55" y="0">i</tspan><tspan class="cls-7" x="31.81" y="0">f</tspan><tspan x="44.1" y="0">e on weels</tspan></text></svg>